<svg viewBox="0 0 400 400" xmlns="http://www.w3.org/2000/svg">
<defs>
  <radialGradient id="tire6" cx="44%" cy="38%" r="58%" gradientUnits="objectBoundingBox">
    <stop offset="0%" stop-color="#1e1e1e"/><stop offset="100%" stop-color="#050505"/>
  </radialGradient>
  <radialGradient id="disc6" cx="38%" cy="32%" r="64%" gradientUnits="objectBoundingBox">
    <stop offset="0%" stop-color="#3a2810"/><stop offset="45%" stop-color="#1e1408"/>
    <stop offset="100%" stop-color="#080400"/>
  </radialGradient>
  <linearGradient id="spoke6" x1="0%" y1="100%" x2="25%" y2="0%">
    <stop offset="0%" stop-color="#8b5e18"/><stop offset="30%" stop-color="#d4a030"/>
    <stop offset="60%" stop-color="#e8b840"/><stop offset="100%" stop-color="#b07828"/>
  </linearGradient>
  <linearGradient id="ring6" x1="0%" y1="0%" x2="100%" y2="100%">
    <stop offset="0%" stop-color="#e0b040"/><stop offset="40%" stop-color="#906020"/>
    <stop offset="100%" stop-color="#d0a030"/>
  </linearGradient>
  <radialGradient id="hub6" cx="35%" cy="30%" r="60%" gradientUnits="objectBoundingBox">
    <stop offset="0%" stop-color="#d0a030"/><stop offset="100%" stop-color="#5a3a10"/>
  </radialGradient>
  <radialGradient id="hl6" cx="36%" cy="28%" r="44%" gradientUnits="objectBoundingBox">
    <stop offset="0%" stop-color="white" stop-opacity="0.22"/><stop offset="100%" stop-color="white" stop-opacity="0"/>
  </radialGradient>
  <clipPath id="rc6"><circle cx="200" cy="200" r="149"/></clipPath>
  <filter id="ds6" x="-15%" y="-15%" width="130%" height="130%">
    <feDropShadow dx="2" dy="10" stdDeviation="16" flood-color="#000" flood-opacity="0.7"/>
  </filter>
</defs>
<rect width="400" height="400" fill="#16100A"/>
<ellipse cx="204" cy="396" rx="158" ry="10" fill="rgba(0,0,0,0.5)"/>
<circle cx="200" cy="200" r="190" fill="url(#tire6)" filter="url(#ds6)"/>
<circle cx="200" cy="200" r="186" fill="none" stroke="#1a1a1a" stroke-width="3"/>
<circle cx="200" cy="200" r="178" fill="none" stroke="#141414" stroke-width="2"/>
<circle cx="200" cy="200" r="170" fill="none" stroke="#1a1a1a" stroke-width="1.5"/>
<circle cx="200" cy="200" r="162" fill="none" stroke="#141414" stroke-width="2"/>
<circle cx="200" cy="200" r="156" fill="none" stroke="#1a1a1a" stroke-width="1.5"/>
<circle cx="200" cy="200" r="149" fill="url(#disc6)"/>
<circle cx="200" cy="200" r="149" fill="#100A02" clip-path="url(#rc6)"/>
<g clip-path="url(#rc6)">
  <g transform="rotate(0,200,200)"><polygon points="186,164 162,54 238,54 214,164" fill="url(#spoke6)"/>
    <line x1="186" y1="164" x2="162" y2="54" stroke="rgba(240,180,60,0.3)" stroke-width="2"/>
    <line x1="214" y1="164" x2="238" y2="54" stroke="rgba(60,30,0,0.5)" stroke-width="2"/>
    <line x1="200" y1="160" x2="200" y2="60" stroke="rgba(80,40,0,0.35)" stroke-width="3"/></g>
  <g transform="rotate(60,200,200)"><polygon points="186,164 162,54 238,54 214,164" fill="url(#spoke6)"/>
    <line x1="186" y1="164" x2="162" y2="54" stroke="rgba(240,180,60,0.3)" stroke-width="2"/>
    <line x1="200" y1="160" x2="200" y2="60" stroke="rgba(80,40,0,0.35)" stroke-width="3"/></g>
  <g transform="rotate(120,200,200)"><polygon points="186,164 162,54 238,54 214,164" fill="url(#spoke6)"/>
    <line x1="200" y1="160" x2="200" y2="60" stroke="rgba(80,40,0,0.35)" stroke-width="3"/></g>
  <g transform="rotate(180,200,200)"><polygon points="186,164 162,54 238,54 214,164" fill="url(#spoke6)"/>
    <line x1="200" y1="160" x2="200" y2="60" stroke="rgba(80,40,0,0.35)" stroke-width="3"/></g>
  <g transform="rotate(240,200,200)"><polygon points="186,164 162,54 238,54 214,164" fill="url(#spoke6)"/>
    <line x1="200" y1="160" x2="200" y2="60" stroke="rgba(80,40,0,0.35)" stroke-width="3"/></g>
  <g transform="rotate(300,200,200)"><polygon points="186,164 162,54 238,54 214,164" fill="url(#spoke6)"/>
    <line x1="200" y1="160" x2="200" y2="60" stroke="rgba(80,40,0,0.35)" stroke-width="3"/></g>
  <!-- Heavy bronze outer ring -->
  <circle cx="200" cy="200" r="120" fill="none" stroke="#c09030" stroke-width="14"/>
  <circle cx="200" cy="200" r="120" fill="none" stroke="rgba(240,200,80,0.3)" stroke-width="4"/>
  <!-- Hex center -->
  <polygon points="200,160 234,180 234,220 200,240 166,220 166,180" fill="url(#hub6)"/>
  <polygon points="200,160 234,180 234,220 200,240 166,220 166,180" fill="none" stroke="rgba(240,180,60,0.35)" stroke-width="2"/>
  <circle cx="200" cy="200" r="20" fill="#3a2008"/>
</g>
<circle cx="200" cy="200" r="145" fill="none" stroke="url(#ring6)" stroke-width="10"/>
<circle cx="200" cy="200" r="18" fill="#7a5018"/>
<circle cx="200" cy="200" r="14" fill="#4a2c08"/>
<circle cx="200" cy="200" r="7"  fill="#2a1404"/>
<circle cx="200" cy="200" r="190" fill="url(#hl6)"/>
<circle cx="200" cy="200" r="149" fill="url(#hl6)" opacity="0.6"/>
</svg>
