<svg viewBox="0 0 400 400" xmlns="http://www.w3.org/2000/svg">
<defs>
  <radialGradient id="tire5" cx="44%" cy="38%" r="58%" gradientUnits="objectBoundingBox">
    <stop offset="0%" stop-color="#1e1e1e"/><stop offset="100%" stop-color="#050505"/>
  </radialGradient>
  <radialGradient id="disc5" cx="38%" cy="32%" r="64%" gradientUnits="objectBoundingBox">
    <stop offset="0%" stop-color="#3a3a3a"/><stop offset="40%" stop-color="#1e1e1e"/>
    <stop offset="100%" stop-color="#080808"/>
  </radialGradient>
  <linearGradient id="spoke5" x1="0%" y1="100%" x2="20%" y2="0%">
    <stop offset="0%" stop-color="#303030"/><stop offset="35%" stop-color="#585858"/>
    <stop offset="65%" stop-color="#646464"/><stop offset="100%" stop-color="#404040"/>
  </linearGradient>
  <linearGradient id="ring5" x1="0%" y1="0%" x2="100%" y2="100%">
    <stop offset="0%" stop-color="#888"/><stop offset="50%" stop-color="#444"/>
    <stop offset="100%" stop-color="#777"/>
  </linearGradient>
  <radialGradient id="hub5" cx="35%" cy="30%" r="58%" gradientUnits="objectBoundingBox">
    <stop offset="0%" stop-color="#484848"/><stop offset="100%" stop-color="#121212"/>
  </radialGradient>
  <radialGradient id="hl5" cx="36%" cy="28%" r="44%" gradientUnits="objectBoundingBox">
    <stop offset="0%" stop-color="white" stop-opacity="0.18"/><stop offset="100%" stop-color="white" stop-opacity="0"/>
  </radialGradient>
  <clipPath id="rc5"><circle cx="200" cy="200" r="149"/></clipPath>
  <filter id="ds5" x="-15%" y="-15%" width="130%" height="130%">
    <feDropShadow dx="2" dy="10" stdDeviation="14" flood-color="#000" flood-opacity="0.7"/>
  </filter>
</defs>
<rect width="400" height="400" fill="#16100A"/>
<ellipse cx="204" cy="396" rx="158" ry="10" fill="rgba(0,0,0,0.5)"/>
<circle cx="200" cy="200" r="190" fill="url(#tire5)" filter="url(#ds5)"/>
<circle cx="200" cy="200" r="186" fill="none" stroke="#1e1e1e" stroke-width="3"/>
<circle cx="200" cy="200" r="164" fill="none" stroke="#161616" stroke-width="4"/>
<circle cx="200" cy="200" r="156" fill="none" stroke="#202020" stroke-width="1.5"/>
<circle cx="200" cy="200" r="149" fill="url(#disc5)"/>
<circle cx="200" cy="200" r="149" fill="#0c0c0c" clip-path="url(#rc5)"/>
<g clip-path="url(#rc5)">
  <g transform="rotate(0,200,200)"><polygon points="191,164 171,54 229,54 209,164" fill="url(#spoke5)"/>
    <line x1="191" y1="164" x2="171" y2="54" stroke="rgba(100,100,100,0.3)" stroke-width="1.5"/>
    <line x1="209" y1="164" x2="229" y2="54" stroke="rgba(0,0,0,0.5)" stroke-width="1.5"/></g>
  <g transform="rotate(72,200,200)"><polygon points="191,164 171,54 229,54 209,164" fill="url(#spoke5)"/>
    <line x1="191" y1="164" x2="171" y2="54" stroke="rgba(100,100,100,0.3)" stroke-width="1.5"/>
    <line x1="209" y1="164" x2="229" y2="54" stroke="rgba(0,0,0,0.5)" stroke-width="1.5"/></g>
  <g transform="rotate(144,200,200)"><polygon points="191,164 171,54 229,54 209,164" fill="url(#spoke5)"/>
    <line x1="191" y1="164" x2="171" y2="54" stroke="rgba(100,100,100,0.3)" stroke-width="1.5"/>
    <line x1="209" y1="164" x2="229" y2="54" stroke="rgba(0,0,0,0.5)" stroke-width="1.5"/></g>
  <g transform="rotate(216,200,200)"><polygon points="191,164 171,54 229,54 209,164" fill="url(#spoke5)"/>
    <line x1="191" y1="164" x2="171" y2="54" stroke="rgba(100,100,100,0.3)" stroke-width="1.5"/>
    <line x1="209" y1="164" x2="229" y2="54" stroke="rgba(0,0,0,0.5)" stroke-width="1.5"/></g>
  <g transform="rotate(288,200,200)"><polygon points="191,164 171,54 229,54 209,164" fill="url(#spoke5)"/>
    <line x1="191" y1="164" x2="171" y2="54" stroke="rgba(100,100,100,0.3)" stroke-width="1.5"/>
    <line x1="209" y1="164" x2="229" y2="54" stroke="rgba(0,0,0,0.5)" stroke-width="1.5"/></g>
  <circle cx="200" cy="200" r="36" fill="url(#hub5)"/>
  <circle cx="200" cy="200" r="36" fill="none" stroke="rgba(100,100,100,0.2)" stroke-width="1.5"/>
</g>
<circle cx="200" cy="200" r="145" fill="none" stroke="url(#ring5)" stroke-width="9"/>
<circle cx="200" cy="200" r="25" fill="#383830"/>
<circle cx="200" cy="200" r="22" fill="#202018"/>
<circle cx="200" cy="200" r="15" fill="#303028"/>
<circle cx="200" cy="200" r="7"  fill="#0c0c0a"/>
<circle cx="200" cy="200" r="190" fill="url(#hl5)"/>
<circle cx="200" cy="200" r="149" fill="url(#hl5)" opacity="0.5"/>
</svg>
